<svg width="18" height="30" viewBox="0 0 18 30" fill="none" xmlns="http://www.w3.org/2000/svg">
<path d="M17.0164 14.4193C17.0149 13.8627 16.7927 13.3294 16.3984 12.9364C16.0044 12.5434 15.4705 12.3226 14.914 12.3226H12.0348V11.357C12.4876 11.1123 12.9024 10.8029 13.2663 10.4388C14.364 9.33266 14.9743 7.8336 14.9611 6.27517C14.9747 4.71531 14.3632 3.21499 13.2633 2.10866C12.6857 1.54018 11.9945 1.10041 11.2346 0.818204L10.5023 0.522832V0.523038C10.2749 0.431789 10.017 0.459393 9.81415 0.596775C9.61106 0.733957 9.48954 0.963 9.48954 1.20813V5.68173C9.48954 5.89698 9.31507 6.07144 9.09962 6.07144C8.88438 6.07144 8.70992 5.89698 8.70992 5.68173V1.21103C8.70992 0.965916 8.58819 0.736868 8.3853 0.599675C8.18241 0.462493 7.92453 0.434689 7.69712 0.525938L6.96486 0.82131H6.96466C6.20419 1.10205 5.51189 1.54081 4.93313 2.10866C3.84784 3.22342 3.24061 4.71773 3.24061 6.27369C3.24061 7.82943 3.84784 9.32401 4.93313 10.4387C3.85607 10.5403 2.85568 11.0404 2.12795 11.8412C1.40044 12.6421 0.998161 13.6857 1.00001 14.7675V20.4871C1.00145 21.6365 1.45871 22.7381 2.27127 23.5506C3.08384 24.3632 4.18563 24.8205 5.33478 24.8221H6.16158V25.8526C6.16158 26.9013 6.72099 27.8702 7.62916 28.3946C8.53733 28.9188 9.65615 28.9188 10.5643 28.3946C11.4725 27.8702 12.0319 26.9013 12.0319 25.8526V24.819H13.532C14.4859 24.819 15.3539 23.818 15.3539 22.7195C15.3539 22.3547 15.2581 21.9963 15.0762 21.6802C15.599 21.2558 15.9045 20.62 15.909 19.9469C15.9113 19.5664 15.8091 19.1926 15.6138 18.8661C16.032 18.5569 16.3197 18.103 16.4209 17.5928C16.5218 17.0828 16.4289 16.5532 16.1601 16.1081C16.6979 15.7135 17.0159 15.0863 17.0163 14.4191L17.0164 14.4193ZM5.97842 3.15403C6.34176 2.79687 6.76831 2.51057 7.23629 2.30951V5.68175C7.23629 6.34852 7.59201 6.96456 8.16956 7.29781C8.7469 7.63129 9.45833 7.63129 10.0357 7.29781C10.6131 6.96454 10.9688 6.34846 10.9688 5.68175V2.30951C11.4359 2.51075 11.8615 2.79706 12.2238 3.15403C13.0438 3.98453 13.4978 5.10831 13.4846 6.27517C13.4969 7.44266 13.0417 8.56644 12.2209 9.39631C11.8658 9.74894 11.4483 10.0322 10.9894 10.232C10.7272 10.3521 10.5587 10.6139 10.5583 10.9024V12.3229L7.64085 12.3227V10.9024C7.64064 10.6139 7.47215 10.352 7.20974 10.232C6.75103 10.0324 6.33352 9.74896 5.97839 9.39631C5.16498 8.56107 4.70976 7.44119 4.70976 6.27518C4.70976 5.10916 5.16496 3.98923 5.97839 3.15404L5.97842 3.15403ZM10.5583 25.8527C10.5583 26.3738 10.2804 26.8554 9.82891 27.1159C9.37762 27.3765 8.82167 27.3765 8.37019 27.1159C7.9189 26.8554 7.64083 26.3738 7.64083 25.8527V24.8191H10.5583V25.8527ZM13.5348 23.3426H5.3348C4.57617 23.3418 3.84887 23.0403 3.31234 22.5037C2.77597 21.9673 2.4742 21.24 2.47341 20.4814V14.7676C2.47423 14.009 2.77599 13.2817 3.31234 12.7453C3.84892 12.2087 4.57623 11.9071 5.3348 11.9064H6.1616V12.3226H6.12617C5.71855 12.3226 5.38796 12.6532 5.38796 13.0609C5.38796 13.4687 5.71855 13.7991 6.12617 13.7991H14.9141C15.2583 13.7991 15.5372 14.0782 15.5372 14.4221C15.5372 14.7663 15.2583 15.0452 14.9141 15.0452H14.1553C13.7475 15.0281 13.4031 15.3447 13.386 15.7525C13.3689 16.1601 13.6855 16.5045 14.0933 16.5216C14.1786 16.556 14.2698 16.5741 14.3619 16.5748C14.7061 16.5748 14.9849 16.8537 14.9849 17.1978C14.9849 17.542 14.7061 17.8209 14.3619 17.8209H13.6031C13.1952 17.8038 12.8508 18.1204 12.8337 18.528C12.8166 18.9358 13.1332 19.2802 13.541 19.2973C13.6265 19.3317 13.7176 19.3498 13.8096 19.3505C14.1437 19.35 14.4185 19.6133 14.4327 19.9469C14.4284 20.199 14.2988 20.4326 14.0873 20.57H13.0479C12.6401 20.5529 12.2957 20.8695 12.2786 21.2771C12.2615 21.6849 12.5781 22.0293 12.9859 22.0464C13.0712 22.0808 13.1624 22.099 13.2545 22.0996C13.4203 22.0987 13.5795 22.164 13.6969 22.281C13.8146 22.3978 13.8805 22.5568 13.8805 22.7227C13.8755 22.9746 13.7462 23.2079 13.535 23.3457L13.5348 23.3426Z" fill="#D30D2B" stroke="#F5F5F5" stroke-width="0.5"/>
</svg>
