<svg width="27" height="23" viewBox="0 0 27 23" fill="none" xmlns="http://www.w3.org/2000/svg">
<path d="M13.4474 0.700439C13.2959 0.700439 13.1507 0.760604 13.0435 0.867813C12.9363 0.974871 12.8761 1.12023 12.8761 1.27178V2.66839C9.02406 2.77002 6.84804 3.50377 6.75154 3.53678C6.62865 3.57975 6.52445 3.66419 6.4569 3.77547C6.15985 4.12591 4.83427 5.7891 3.4428 8.94811L2.76229 8.94826C2.29667 8.95218 1.85109 9.13886 1.52143 9.46788C1.19196 9.7969 1.00467 10.2422 1 10.708V10.8019C1.00392 11.268 1.1909 11.714 1.52051 12.0436C1.85013 12.3733 2.29617 12.5602 2.76225 12.5641H2.8384V19.1307C2.83915 19.6779 3.05689 20.2027 3.44383 20.5897C3.83089 20.9766 4.35564 21.1944 4.90286 21.1952H6.47982C7.02839 21.1965 7.55507 20.9797 7.94383 20.5925C8.33239 20.2053 8.55119 19.6793 8.55196 19.1307H12.8688V21.7462C12.8688 21.9503 12.9777 22.139 13.1544 22.2409C13.3313 22.343 13.549 22.343 13.7257 22.2409C13.9026 22.1389 14.0115 21.9503 14.0115 21.7462V1.27178C14.0115 1.1216 13.9524 0.977446 13.8468 0.870403C13.7413 0.763496 13.5976 0.702397 13.4474 0.700439ZM12.8761 18.0106H5.68227C5.53299 18.0085 5.38853 18.064 5.27934 18.1658C5.17002 18.2674 5.10427 18.4075 5.09568 18.5566C5.09297 18.7053 5.14906 18.849 5.25175 18.9565C5.35459 19.0639 5.49557 19.1264 5.64425 19.1305H7.42175C7.41767 19.3766 7.31725 19.6112 7.14203 19.784C6.96682 19.957 6.73085 20.0541 6.48476 20.0547H4.9078C4.66142 20.0549 4.42497 19.9577 4.24976 19.7848C4.07439 19.6118 3.97412 19.3768 3.9708 19.1305V12.0432C3.9708 11.8836 3.90732 11.7305 3.79453 11.6177C3.68174 11.5048 3.52854 11.4415 3.36902 11.4415H2.76209C2.59305 11.4415 2.43096 11.3742 2.31137 11.2548C2.19195 11.1352 2.1247 10.9731 2.1247 10.8041V10.7101C2.1247 10.5411 2.19195 10.379 2.31137 10.2594C2.43095 10.1399 2.59304 10.0728 2.76209 10.0728H3.88185C4.31612 10.0728 4.46585 9.71478 4.66897 9.28562C4.66897 9.28562 6.95431 4.92556 7.2666 4.55228C7.80749 4.39229 9.76529 3.87929 12.8708 3.79051L12.8761 18.0106Z" fill="#D30D2B" stroke="#F5F5F5" stroke-width="0.25"/>
<path d="M20.9021 6.39038C19.5436 6.39038 18.2409 6.92992 17.2805 7.89041C16.3199 8.85093 15.7803 10.1537 15.7803 11.512C15.7803 12.8705 16.3199 14.1732 17.2805 15.1336C18.241 16.0942 19.5436 16.6338 20.9021 16.6338C22.2604 16.6338 23.5632 16.0942 24.5237 15.1336C25.4842 14.1731 26.0237 12.8705 26.0237 11.512C26.0237 10.1537 25.4842 8.8509 24.5237 7.89041C23.5632 6.92988 22.2603 6.39038 20.9021 6.39038ZM23.1265 10.4532L20.9656 13.2389L20.9224 13.2846C20.7116 13.5156 20.4324 13.6324 20.2799 13.5156L18.6472 12.2459C18.4872 12.1215 18.5279 11.7939 18.7411 11.5172C18.9545 11.2403 19.249 11.1159 19.4216 11.2403L20.3434 11.9513L22.1209 9.64814V9.64829C22.2239 9.5147 22.3757 9.42769 22.5428 9.40628C22.71 9.38487 22.8789 9.43071 23.0122 9.534L23.0351 9.55179C23.1659 9.65809 23.249 9.81205 23.2661 9.97973C23.2833 10.1474 23.233 10.3149 23.1265 10.4455L23.1265 10.4532Z" fill="#D30D2B"/>
</svg>
