<svg width="29" height="26" viewBox="0 0 29 26" fill="none" xmlns="http://www.w3.org/2000/svg">
<path d="M27.1789 11.0286L25.7306 10.8926C25.5606 10.3078 25.3294 9.75023 25.0234 9.21987L25.9414 8.11153C26.1658 7.83954 26.1454 7.45198 25.9006 7.20038L24.0919 5.37125C23.8471 5.11966 23.4459 5.09927 23.1739 5.32366L22.0655 6.24164C21.5419 5.94245 20.9776 5.70446 20.3996 5.53447L20.2636 4.0929C20.2296 3.74612 19.9372 3.48093 19.5836 3.48093H17.3261V1.44782C17.3261 1.07384 17.0201 0.767822 16.6461 0.767822C16.2721 0.767822 15.9661 1.07381 15.9661 1.44782V4.84771H13.3958C12.3011 4.84771 11.2607 5.36448 10.5944 6.23481L7.78609 9.92024L3.07389 11.2054C1.84991 11.5386 1.00678 12.647 1 13.9185V15.7204C1.0068 17.2708 2.27154 18.5218 3.8219 18.5218H4.18908C4.69906 20.419 6.65059 21.5341 8.54767 21.0241C9.76481 20.6909 10.7236 19.739 11.05 18.5218H15.9661V24.1656C15.9661 24.5396 16.2721 24.8456 16.6461 24.8456C17.0201 24.8456 17.3261 24.5396 17.3261 24.1656V22.5336H19.5836C19.9372 22.5336 20.2296 22.2685 20.2636 21.9149L20.3996 20.4665C20.9844 20.2965 21.542 20.0653 22.0723 19.7661L23.1807 20.6841C23.4526 20.9085 23.847 20.8881 24.0918 20.6433L25.9209 18.8142C26.1657 18.5694 26.1861 18.1682 25.9617 17.8962L25.0437 16.7879C25.3429 16.2575 25.5809 15.6999 25.7509 15.1219L27.1789 14.9859C27.5257 14.9519 27.7976 14.6596 27.7976 14.3059V11.7152C27.7976 11.3549 27.5257 11.0625 27.1789 11.0285L27.1789 11.0286ZM7.62313 19.7931C6.41277 19.7931 5.42683 18.8072 5.42683 17.5968C5.42683 16.3865 6.41277 15.4005 7.62313 15.4005C8.83349 15.4005 9.81942 16.3865 9.81942 17.5968C9.81942 18.8072 8.84027 19.7931 7.62313 19.7931ZM15.9662 17.1548H11.1519C10.914 15.2033 9.13924 13.8229 7.19454 14.0541C5.57622 14.2513 4.29785 15.5297 4.09387 17.1548H3.82188C3.01953 17.1616 2.36676 16.5156 2.35993 15.7132V13.9113C2.36673 13.2586 2.80191 12.6874 3.43426 12.5106L8.36405 11.1643C8.50685 11.1235 8.63604 11.0419 8.72444 10.9195L11.6687 7.05049C12.0767 6.51332 12.7159 6.20052 13.389 6.20052H15.9661L15.9662 17.1548ZM17.3261 10.1173C18.9173 9.58693 20.6376 10.4505 21.1679 12.0484C21.6983 13.6395 20.8348 15.3599 19.2369 15.8902C18.6181 16.0942 17.9449 16.0942 17.3262 15.8902L17.3261 10.1173ZM26.4376 13.6803L25.1456 13.8027C24.8532 13.8299 24.6085 14.0475 24.5473 14.3331C24.3773 15.0947 24.0713 15.8154 23.6429 16.4682C23.4797 16.7198 23.5001 17.0394 23.6905 17.2706L24.5201 18.2769L23.5681 19.2289L22.5617 18.4061C22.3306 18.2157 22.0042 18.1953 21.7526 18.3653C21.1066 18.7937 20.3858 19.0997 19.6243 19.2629C19.3319 19.3241 19.1211 19.5689 19.0939 19.8613L18.9715 21.1668H17.326V17.2978C19.6991 17.8282 22.0518 16.3323 22.5754 13.9592C23.1057 11.5861 21.6098 9.23338 19.2367 8.70979C18.6043 8.567 17.9516 8.567 17.326 8.70979V4.84756H18.9647L19.0939 6.14633C19.1211 6.43871 19.3387 6.6835 19.6243 6.7447C20.3859 6.9147 21.1066 7.22068 21.7594 7.64229C22.011 7.80549 22.3306 7.78509 22.5618 7.5947L23.5613 6.76512L24.4997 7.71027L23.6633 8.72343C23.4729 8.95462 23.4525 9.28101 23.6225 9.53262C24.0509 10.1786 24.3569 10.8993 24.5201 11.6609C24.5881 11.9533 24.8261 12.1641 25.1253 12.1913L26.4376 12.3205L26.4376 13.6803Z" fill="#D30D2B" stroke="#F5F5F5" stroke-width="0.5"/>
</svg>
