<svg width="27" height="26" viewBox="0 0 27 26" fill="none" xmlns="http://www.w3.org/2000/svg">
<path d="M1 17.9962V20.8388C1 22.0174 2.31853 23.3107 3.51946 23.3107H4.56562C5.08839 24.4044 6.19656 25.1671 7.48736 25.1671C8.89598 25.1671 10.0862 24.2598 10.5344 23.0028H15.9828C16.431 24.2598 17.6212 25.1671 19.0298 25.1671C20.3204 25.1671 21.4286 24.4042 21.9516 23.3107H23.7191C24.8012 23.3107 25.5282 22.3174 25.5282 20.8388V17.7655C25.5282 16.6115 24.9604 16.0858 24.5043 15.8583L22.9938 15.0411C22.7882 14.9353 22.6599 14.8355 22.5915 14.7043L22.1446 13.9499C24.3601 12.8134 25.883 10.5101 25.883 7.85342C25.883 4.07452 22.8085 1 19.0295 1C15.2506 1 12.1766 4.07446 12.1766 7.85342C12.1766 8.7258 12.3467 9.5573 12.6453 10.3253H10.9073C10.0897 10.3253 9.32083 10.8064 8.94949 11.549L7.4545 14.5135C7.40883 14.6896 6.95652 14.883 6.94598 14.8857L2.81626 15.8967C1.93562 16.1137 1.00039 16.9239 1.00039 17.9963L1 17.9962ZM7.48684 23.7245C6.49231 23.7245 5.68334 22.9157 5.68334 21.921C5.68334 20.9262 6.49231 20.1175 7.48684 20.1175C8.48136 20.1175 9.29033 20.9262 9.29033 21.921C9.29033 22.9159 8.48136 23.7245 7.48684 23.7245ZM19.0291 23.7245C18.0346 23.7245 17.2256 22.9157 17.2256 21.921C17.2256 20.9262 18.0346 20.1175 19.0291 20.1175C20.0236 20.1175 20.8326 20.9262 20.8326 21.921C20.833 22.9159 20.0236 23.7245 19.0291 23.7245ZM19.0291 2.44322C22.0126 2.44322 24.44 4.87011 24.44 7.85411C24.44 10.8376 22.0131 13.265 19.0291 13.265C16.0456 13.265 13.6182 10.8381 13.6182 7.85411C13.6184 4.87037 16.0453 2.44322 19.0291 2.44322ZM7.29111 16.2871C7.4651 16.2435 7.62999 16.1769 7.78641 16.0969H15.428C15.8264 16.0969 16.1494 15.7744 16.1494 15.3756C16.1494 14.9768 15.8264 14.6542 15.428 14.6542H8.99882L10.238 12.197C10.3643 11.9449 10.6389 11.7686 10.9067 11.7686H13.2641C13.2641 11.7686 15.4284 14.6542 19.03 14.7071C19.6348 14.716 20.2185 14.6206 20.7776 14.4728L21.3292 15.4026C21.5827 15.8973 22.0251 16.1664 22.3212 16.3186L23.8387 17.1396C23.9191 17.1799 24.0852 17.2627 24.0852 17.7667V20.8389C24.0852 21.3778 23.9104 21.8683 23.7189 21.8683H22.2706C22.2413 20.1031 20.8013 18.6746 19.0296 18.6746C17.3631 18.6746 16.0018 19.9417 15.8199 21.5602L10.6965 21.56C10.5143 19.9415 9.1532 18.6744 7.48693 18.6744C5.71528 18.6744 4.27525 20.1024 4.24589 21.8681H3.51918C3.11687 21.8681 2.44261 21.2234 2.44261 20.8387V17.9961C2.44261 17.7235 2.785 17.3902 3.15985 17.2979L7.29111 16.2871Z" fill="#D30D2B" stroke="#F5F5F5" stroke-width="0.5"/>
<path d="M18.8355 8.63663H19.2229C19.4478 8.63663 19.6308 8.8197 19.6308 9.04452C19.6308 9.26933 19.4478 9.45179 19.2229 9.45179H17.9324C17.5336 9.45179 17.211 9.77434 17.211 10.1732C17.211 10.572 17.5335 10.8945 17.9324 10.8945H18.308V11.3336C18.308 11.7324 18.631 12.055 19.0294 12.055C19.4278 12.055 19.7507 11.7324 19.7507 11.3336V10.8088C20.513 10.58 21.0736 9.88015 21.0736 9.04474C21.0736 8.02397 20.2434 7.19395 19.2228 7.19395L18.8356 7.19375C18.6108 7.19375 18.4277 7.01067 18.4277 6.78586C18.4277 6.56104 18.6108 6.37859 18.8356 6.37859H20.1262C20.525 6.37859 20.8476 6.05604 20.8476 5.65722C20.8476 5.25841 20.525 4.93586 20.1262 4.93586H19.7509V4.37298C19.7509 3.97418 19.428 3.65161 19.0296 3.65161C18.6312 3.65161 18.3082 3.97417 18.3082 4.37298V5.02182C17.546 5.25056 16.9854 5.95044 16.9854 6.78585C16.9849 7.80683 17.815 8.63663 18.8356 8.63663H18.8355Z" fill="#D30D2B" stroke="#F5F5F5" stroke-width="0.5"/>
</svg>
