<svg width="30" height="30" viewBox="0 0 30 30" fill="none" xmlns="http://www.w3.org/2000/svg">
<path d="M1 28.9824C1.08609 28.7006 1.1487 28.4815 1.22696 28.2702C1.93131 26.1884 2.64349 24.1067 3.34002 22.0171C3.3948 21.8527 3.37915 21.6023 3.29306 21.4458C0.060861 15.6857 1.18 8.76741 6.13396 4.40824C9.06094 1.83343 12.5358 0.722115 16.4332 1.05864C22.295 1.55951 27.0768 5.59781 28.5637 11.2718C30.5359 18.7536 25.6133 26.5563 17.9984 28.0198C14.7897 28.638 11.7297 28.2154 8.81051 26.7441C8.65398 26.6658 8.41137 26.658 8.23137 26.7128C5.96961 27.4171 3.71568 28.145 1.46174 28.8572C1.33652 28.9041 1.20348 28.9276 1 28.9824ZM4.39655 25.6563C4.59221 25.6015 4.72525 25.5623 4.8583 25.5232C6.09483 25.1319 7.33919 24.7249 8.58355 24.3493C8.73224 24.3023 8.94355 24.3258 9.0766 24.4041C11.761 26.0241 14.641 26.525 17.7167 25.891C24.0011 24.5919 28.0472 18.1666 26.4976 11.9527C25.0107 5.97347 19.1802 2.24822 13.0679 3.35953C7.66006 4.3378 3.63742 9.13524 3.63742 14.6292C3.63742 17.0005 4.31829 19.1684 5.66439 21.1249C5.79743 21.3206 5.82874 21.4771 5.74265 21.6962C5.58613 22.111 5.45308 22.5336 5.31221 22.9484C5.01482 23.8328 4.71743 24.7093 4.39655 25.6563Z" fill="#DE0039" stroke="#E0E0E0"/>
<path d="M8.5216 11.608C8.51377 10.5436 8.90508 9.64361 9.64857 8.90012C10.1416 8.40707 10.7912 8.35229 11.4329 8.39925C11.5973 8.40707 11.8164 8.64186 11.8947 8.82186C12.3095 9.73752 12.7008 10.661 13.0686 11.5923C13.1312 11.7488 13.1077 11.9993 13.0138 12.148C12.7869 12.5236 12.5129 12.8758 12.2234 13.2045C11.9886 13.4706 11.9338 13.6897 12.1295 14.0028C13.2408 15.8184 14.759 17.1489 16.7469 17.9315C17.0286 18.0411 17.2478 18.0176 17.4434 17.775C17.7799 17.3602 18.1321 16.9611 18.453 16.5306C18.6408 16.2802 18.86 16.1784 19.126 16.2958C20.0965 16.7419 21.0669 17.188 22.0139 17.6732C22.1391 17.7359 22.2174 18.0019 22.2174 18.1663C22.1939 19.6767 21.4426 20.4907 19.7678 20.9602C19.04 21.1637 18.3356 21.015 17.6156 20.8194C14.4147 19.9741 11.9886 18.088 10.126 15.388C9.46074 14.4254 8.81899 13.4706 8.60769 12.2967C8.56073 12.0697 8.54508 11.8349 8.5216 11.608Z" fill="#DE0039"/>
</svg>
