<svg width="12" height="23" viewBox="0 0 12 23" fill="none" xmlns="http://www.w3.org/2000/svg">
<path d="M0.596692 11.8693C0.617551 12.0952 0.714077 12.3089 0.872368 12.4798L9.97812 22.3818C10.0744 22.4933 10.1936 22.5855 10.3286 22.6527C10.4635 22.72 10.6115 22.761 10.7637 22.7734C10.9159 22.7857 11.0691 22.7692 11.2144 22.7246C11.3596 22.6801 11.4938 22.6086 11.609 22.5142C11.7242 22.4199 11.818 22.3048 11.8849 22.1756C11.9518 22.0465 11.9904 21.906 11.9984 21.7626C12.0064 21.6191 11.9835 21.4756 11.9313 21.3406C11.8791 21.2056 11.7985 21.0819 11.6944 20.9768L3.23773 11.7773L11.6944 2.57784C11.7985 2.47275 11.8791 2.34903 11.9313 2.21404C11.9835 2.07905 12.0064 1.93555 11.9984 1.7921C11.9904 1.64864 11.9518 1.50817 11.8849 1.37903C11.818 1.24989 11.7242 1.13474 11.609 1.04042C11.4938 0.946108 11.3596 0.874552 11.2144 0.830037C11.0691 0.785523 10.9159 0.768956 10.7637 0.781312C10.6115 0.793667 10.4635 0.834694 10.3286 0.901957C10.1936 0.969221 10.0744 1.06134 9.97812 1.17283L0.872368 11.0748C0.772118 11.1831 0.696051 11.3093 0.648692 11.4457C0.601332 11.5822 0.583648 11.7263 0.596692 11.8693V11.8693Z" fill="#C6C6C6"/>
</svg>
